HIERARCHY
ROOT Hips
{
	OFFSET 0.000000 0.000000 0.000000 
	CHANNELS 6 Xposition Yposition Zposition Yrotation Zrotation Xrotation 
	JOINT Lumbar
	{
		OFFSET 0.000000 0.000000 0.000000 
		CHANNELS 3 Zrotation Xrotation Yrotation
		JOINT Neck
		{
			OFFSET 0.000000 0.445665 0.000000 
			CHANNELS 3 Zrotation Xrotation Yrotation
			End Site
			{
				OFFSET 0.000000 0.227535 0.000000 
			}
		}
		JOINT RightShoulder
		{
			OFFSET 0.019635 0.377685 0.194865 
			CHANNELS 3 Zrotation Xrotation Yrotation
			JOINT RightElbow
			{
				OFFSET 0.000000 -0.243375 0.000000 
				CHANNELS 2 Zrotation Yrotation
				JOINT RightWrist
				{
					OFFSET 0.000000 -0.264825 0.000000 
					CHANNELS 2 Zrotation Xrotation
					End Site
					{
						OFFSET 0.006600 -0.176220 0.000990 
					}
				}
			}
		}
		JOINT LeftShoulder
		{
			OFFSET 0.019635 0.377685 -0.194865 
			CHANNELS 3 Zrotation Xrotation Yrotation
			JOINT LeftElbow
			{
				OFFSET 0.000000 -0.243375 0.000000 
				CHANNELS 2 Zrotation Yrotation
				JOINT LeftWrist
				{
					OFFSET 0.000000 -0.264825 0.000000 
					CHANNELS 2 Zrotation Xrotation
					End Site
					{
						OFFSET 0.006600 -0.176220 -0.000990 
					}
				}
			}
		}
	}
	JOINT RightHip
	{
		OFFSET 0.052140 -0.069960 0.075570 
		CHANNELS 3 Zrotation Xrotation Yrotation
		JOINT RightKnee
		{
			OFFSET 0.000000 -0.402270 0.000000 
			CHANNELS 1 Zrotation
			JOINT RightAnkle
			{
				OFFSET 0.000000 -0.404085 0.000000 
				CHANNELS 3 Zrotation Xrotation Yrotation
				End Site
				{
					OFFSET 0.204105 -0.089430 0.008415 
				}
			}
		}
	}
	JOINT LeftHip
	{
		OFFSET 0.052140 -0.069960 -0.075570 
		CHANNELS 3 Zrotation Xrotation Yrotation
		JOINT LeftKnee
		{
			OFFSET 0.000000 -0.402270 0.000000 
			CHANNELS 1 Zrotation
			JOINT LeftAnkle
			{
				OFFSET 0.000000 -0.404085 0.000000 
				CHANNELS 3 Zrotation Xrotation Yrotation
				End Site
				{
					OFFSET 0.204105 -0.089430 -0.008415 
				}
			}
		}
	}
}
MOTION
Frames: 16
Frame Time: 0.02
0.00102 -0.00028 -0.00145 21.62603 -33.15966 -2.58479 54.63541 -0.96774 -2.08025 -9.92758 -1.51392 -0.50843 169.87531 -71.9489 -43.4118 12.19308 80.56467 -1.28891 -6.02549 9.48718 106.36714 90.00235 5.3289 -44.92011 -22.67268 -3.94856 44.71334 -0.00265 4.67657 -18.91394 -8.49328 -5.77889 -3.82367 50.44262 3.54784 3.53565 -24.20829 -8.60526 4.84945 3.39503
0.00235 -0.00011 -0.00019 21.68617 -33.10831 -2.56797 54.6387 -0.9895 -2.08162 -9.90866 -1.50076 -0.50842 169.875 -71.96794 -43.45317 12.18743 80.56732 -1.27321 -6.01137 9.45877 106.30164 90.00236 5.3289 -44.81558 -22.65827 -3.90202 44.60367 -0.08104 3.6628 -18.92649 -8.38853 -5.69557 -3.77026 50.36407 3.65802 3.64755 -24.23005 -8.61473 4.85298 3.3897
0.00368 5e-05 0.00106 21.74622 -33.05711 -2.55119 54.64192 -1.01122 -2.08298 -9.88971 -1.48762 -0.50842 169.87469 -71.98689 -43.49451 12.18184 80.56996 -1.25754 -5.99737 9.43028 106.23629 90.00234 5.3289 -44.7113 -22.644 -3.85562 44.4944 -0.15907 2.65183 -18.93909 -8.28406 -5.61247 -3.71701 50.28588 3.76803 3.75921 -24.25184 -8.62419 4.85648 3.38438
0.00501 0.00022 0.00232 21.80619 -33.00591 -2.53442 54.64519 -1.03293 -2.08435 -9.87083 -1.47449 -0.50841 169.87438 -72.00587 -43.53577 12.17621 80.5726 -1.24189 -5.98331 9.40194 106.17098 90.00243 5.3289 -44.60705 -22.62968 -3.80922 44.38507 -0.2372 1.64115 -18.95162 -8.17962 -5.5294 -3.66377 50.20758 3.87789 3.87076 -24.27355 -8.63363 4.86 3.37907
0.00635 0.00039 0.00357 21.86622 -32.95456 -2.51762 54.64853 -1.05468 -2.08573 -9.852 -1.46136 -0.5084 169.87408 -72.02495 -43.57701 12.17051 80.57524 -1.22624 -5.9691 9.37372 106.10554 90.00232 5.3289 -44.50263 -22.61508 -3.76269 44.27535 -0.31572 0.62774 -18.96409 -8.0749 -5.44611 -3.61037 50.1289 3.98786 3.98255 -24.29518 -8.64308 4.86355 3.37375
0.00767 0.00056 0.00483 21.92629 -32.90367 -2.50088 54.6515 -1.07634 -2.08705 -9.83281 -1.44819 -0.50839 169.87377 -72.04364 -43.61854 12.16515 80.5779 -1.21051 -5.95552 9.34463 106.04038 90.00233 5.32889 -44.39871 -22.60146 -3.71657 44.16705 -0.39275 -0.37806 -18.97697 -7.97097 -5.36344 -3.55741 50.05176 4.09797 4.09396 -24.31731 -8.65255 4.86694 3.36841
0.00901 0.00073 0.00607 21.98622 -32.85191 -2.48404 54.65522 -1.09814 -2.08852 -9.81435 -1.43511 -0.50839 169.87347 -72.06308 -43.6595 12.1591 80.58052 -1.19495 -5.94072 9.31741 105.97473 90.00274 5.32889 -44.29369 -22.58611 -3.66965 44.05596 -0.47268 -1.39791 -18.98899 -7.86558 -5.27962 -3.50365 49.97156 4.20762 4.20587 -24.33842 -8.66197 4.87067 3.36315
0.01034 0.0009 0.00733 22.04627 -32.80097 -2.46728 54.65824 -1.11983 -2.08979 -9.79524 -1.42196 -0.50838 169.87316 -72.08188 -43.70085 12.15369 80.58317 -1.17926 -5.92699 9.28833 105.90956 90.00163 5.3289 -44.19008 -22.57196 -3.62353 43.94751 -0.54994 -2.40507 -19.00181 -7.76151 -5.19683 -3.45061 49.89424 4.3178 4.3176 -24.36046 -8.67143 4.87405 3.35779
0.01164 0.00107 0.00861 22.10654 -32.75091 -2.45064 54.66044 -1.14133 -2.09107 -9.77526 -1.40867 -0.50837 169.87283 -72.09968 -43.74325 12.14906 80.58585 -1.16328 -5.9148 9.25746 105.8448 90.00323 5.32889 -44.08659 -22.56085 -3.57809 43.84197 -0.62392 -3.39612 -19.01559 -7.65912 -5.11539 -3.39849 49.8202 4.42828 4.42807 -24.38372 -8.68096 4.87712 3.35238
0.01306 0.00125 0.00977 22.16576 -32.69541 -2.43338 54.66747 -1.16375 -2.09303 -9.76005 -1.39601 -0.50836 169.87258 -72.12258 -43.78136 12.13995 80.58837 -1.14857 -5.89445 9.23833 105.77713 90.00298 5.3289 -43.97759 -22.537 -3.52786 43.71874 -0.71675 -4.47811 -19.02379 -7.54723 -5.02644 -3.3412 49.72657 4.536 4.54267 -24.40021 -8.69016 4.88235 3.34747
0.01424 0.00139 0.01118 22.22703 -32.65164 -2.4174 54.66424 -1.18434 -2.09309 -9.73493 -1.38214 -0.50837 169.87218 -72.13513 -43.82737 12.14027 80.5912 -1.13143 -5.89088 9.19353 105.71597 89.99783 5.3289 -43.88328 -22.53696 -3.48829 43.63346 -0.76984 -5.36926 -19.04381 -7.45531 -4.95321 -3.29473 49.67472 4.65018 4.6505 -24.4308 -8.69998 4.88278 3.34139
0.01476 0.00142 0.01321 22.29553 -32.63843 -2.40508 54.63308 -1.19894 -2.09167 -9.68099 -1.36387 -0.50843 169.8713 -72.1157 -43.90552 12.16689 80.59517 -1.10525 -5.93741 9.08821 105.67028 90.01299 5.32888 -43.81631 -22.61874 -3.47178 43.64859 -0.71228 -5.72273 -19.09655 -7.41944 -4.92467 -3.2789 49.73532 4.77692 4.72301 -24.50212 -8.71248 4.872 3.33298
0.01504 0.00139 0.01549 22.36583 -32.63731 -2.39403 54.59145 -1.21187 -2.08769 -9.61742 -1.34465 -0.50853 169.87025 -72.08658 -43.99025 12.20286 80.59939 -1.07692 -6.00012 8.95764 105.63188 89.99041 5.32892 -43.77463 -22.71489 -3.46571 43.70276 -0.61504 -5.88655 -19.16136 -7.40349 -4.91173 -3.27378 49.83842 4.91096 4.79121 -24.58727 -8.72552 4.85612 3.32327
0.01542 0.00139 0.01767 22.43419 -32.63174 -2.38229 54.5546 -1.2262 -2.08233 -9.55929 -1.32648 -0.50861 169.86938 -72.06417 -44.06439 12.23432 80.60329 -1.05129 -6.05268 8.82908 105.59131 89.99698 5.32886 -43.71945 -22.80194 -3.46071 43.74117 -0.5371 -6.14715 -19.22013 -7.37752 -4.89055 -3.26304 49.92334 5.04522 4.87316 -24.66473 -8.73758 4.8412 3.31354
0.01584 0.0014 0.01978 22.50711 -32.62179 -2.37099 54.51811 -1.23782 -2.08745 -9.4966 -1.3054 -0.50866 169.86821 -72.03186 -44.16823 12.2671 80.60801 -1.01896 -6.11675 8.73059 105.54465 90.06211 5.32887 -43.63931 -22.92648 -3.43697 43.77029 -0.45402 -6.36528 -19.2802 -7.35528 -4.8739 -3.25529 50.003 5.16515 4.90793 -24.74801 -8.75236 4.83168 3.30626
0.01612 0.00137 0.02211 22.57117 -32.62382 -2.35911 54.4778 -1.25469 -2.07044 -9.44119 -1.29054 -0.50882 169.86746 -72.01806 -44.21477 12.2991 80.61112 -0.99936 -6.16111 8.57582 105.514 89.85932 5.32907 -43.65912 -22.94296 -3.44746 43.82927 -0.37187 -6.62362 -19.34173 -7.33046 -4.85194 -3.24411 50.10441 5.31589 5.03666 -24.82261 -8.76208 4.81008 3.29375
